<svg width="74" height="74" viewBox="0 0 74 74" fill="none" xmlns="http://www.w3.org/2000/svg">
<path d="M61.347 39.5515L63.434 41.7066C63.9356 41.2208 64.2521 40.5752 64.3288 39.8811L61.347 39.5515ZM29.7395 70.1615L27.5845 72.2485C28.7371 73.4387 30.6364 73.4692 31.8266 72.3165L29.7395 70.1615ZM3.30365 42.8641L1.21661 40.7091C0.645052 41.2626 0.31679 42.0205 0.304035 42.8161C0.291281 43.6116 0.595079 44.3796 1.1486 44.9512L3.30365 42.8641ZM34.9111 12.2542L34.4165 9.29524C33.8165 9.39554 33.2611 9.6759 32.8241 10.0991L34.9111 12.2542ZM52.284 9.35033L54.4391 7.26329L53.3432 6.13168L51.7894 6.39138L52.284 9.35033ZM63.4149 20.844L66.3967 21.1736L66.5518 19.7708L65.5699 18.7569L63.4149 20.844ZM49.4618 20.3147C49.4618 21.9716 50.805 23.3147 52.4618 23.3147C54.1187 23.3147 55.4618 21.9716 55.4618 20.3147L49.4618 20.3147ZM68.9839 4.31408L71.1389 2.22705L71.1389 2.22705L68.9839 4.31408ZM58.9007 14.1281C57.3207 14.6268 56.4441 16.3119 56.9428 17.8919C57.4414 19.472 59.1266 20.3486 60.7066 19.8499L58.9007 14.1281ZM61.347 39.5515L59.2599 37.3965L27.6525 68.0064L29.7395 70.1615L31.8266 72.3165L63.434 41.7066L61.347 39.5515ZM29.7395 70.1615L31.8946 68.0744L5.4587 40.7771L3.30365 42.8641L1.1486 44.9512L27.5845 72.2485L29.7395 70.1615ZM3.30365 42.8641L5.39069 45.0192L36.9981 14.4092L34.9111 12.2542L32.8241 10.0991L1.21661 40.7091L3.30365 42.8641ZM52.284 9.35033L50.1289 11.4374L61.2598 22.931L63.4149 20.844L65.5699 18.7569L54.4391 7.26329L52.284 9.35033ZM63.4149 20.844L60.4331 20.5143L58.3651 39.2219L61.347 39.5515L64.3288 39.8811L66.3967 21.1736L63.4149 20.844ZM34.9111 12.2542L35.4057 15.2131L52.7786 12.3093L52.284 9.35033L51.7894 6.39138L34.4165 9.29524L34.9111 12.2542ZM52.4618 20.3147L55.4618 20.3147C55.4618 20.6271 55.3947 20.7618 55.4577 20.5534C55.5003 20.4125 55.5807 20.1869 55.712 19.8716C55.9729 19.2456 56.3742 18.4106 56.898 17.4409C57.9457 15.5012 59.4003 13.1761 61.0005 11.1121C62.648 8.98712 64.251 7.4005 65.549 6.65014C66.1791 6.28582 66.5178 6.24822 66.6137 6.25007C66.634 6.25046 66.6427 6.25241 66.6434 6.25257C66.6438 6.25264 66.6446 6.25269 66.6487 6.25456C66.6519 6.25598 66.7149 6.28347 66.8288 6.40112L68.9839 4.31408L71.1389 2.22705C69.9267 0.975324 68.4058 0.283393 66.729 0.251173C65.1582 0.220991 63.7264 0.773293 62.546 1.45572C60.2227 2.79884 58.044 5.1331 56.2588 7.43574C54.4262 9.79936 52.7969 12.4086 51.6189 14.5894C51.0298 15.68 50.5328 16.7017 50.1736 17.5639C49.9949 17.9928 49.8347 18.4191 49.7143 18.8174C49.6144 19.1482 49.4618 19.7093 49.4618 20.3147L52.4618 20.3147ZM68.9839 4.31408L66.8288 6.40112C67.2834 6.87056 67.2647 7.11361 67.1681 7.45343C66.9978 8.05229 66.4363 8.93935 65.3372 9.99888C63.142 12.1153 60.0261 13.7729 58.9007 14.1281L59.8036 16.989L60.7066 19.8499C62.7797 19.1956 66.6889 17.03 69.5015 14.3184C70.9065 12.964 72.3446 11.1859 72.9393 9.0945C73.6076 6.74408 73.1192 4.27184 71.1389 2.22705L68.9839 4.31408Z" fill="white"/>
</svg>
