<svg width="61" height="61" viewBox="0 0 61 61" fill="none" xmlns="http://www.w3.org/2000/svg">
<g clip-path="url(#clip0_10_2)">
<path d="M59.8027 34.7645V26.5285H55.9355C55.3079 22.6964 53.8023 19.0613 51.5363 15.9078L54.2715 13.1738L48.4473 7.34961L45.7133 10.0836C42.5596 7.81805 38.9246 6.3128 35.0926 5.68555V1.81836H26.8566V5.68555C23.0245 6.31315 19.3895 7.81881 16.2359 10.0848L13.502 7.34961L7.67773 13.1738L10.4117 15.9078C8.14618 19.0615 6.64092 22.6965 6.01367 26.5285H2.14648V34.7645H6.01367C6.64127 38.5966 8.14693 42.2316 10.4129 45.3852L7.67773 48.1191L13.502 53.9434L16.2359 51.2094C19.3896 53.4749 23.0246 54.9802 26.8566 55.6074V59.4746H35.0926V55.6074C38.9247 54.9798 42.5597 53.4742 45.7133 51.2082L48.4473 53.9434L54.2715 48.1191L51.5375 45.3852C53.803 42.2315 55.3083 38.5965 55.9355 34.7645H59.8027Z" stroke="white" stroke-width="2.34375" stroke-linecap="round" stroke-linejoin="round"/>
<path d="M30.616 47.232C39.7928 47.232 47.232 39.7928 47.232 30.616C47.232 21.4392 39.7928 14 30.616 14C21.4392 14 14 21.4392 14 30.616C14 39.7928 21.4392 47.232 30.616 47.232Z" stroke="white" stroke-width="2.34375" stroke-linecap="round" stroke-linejoin="round"/>
</g>
<defs>
<clipPath id="clip0_10_2">
<rect width="60" height="60" fill="white" transform="translate(0.974609 0.646484)"/>
</clipPath>
</defs>
</svg>
