<svg xmlns="http://www.w3.org/2000/svg" style="width: 209px;height: 34px;"><g data-v-0dd9719b="" fill="#222831" transform="translate(1,1)"><g class="iconsvg-imagesvg" transform="translate(0,0)"><g><rect fill="#222831" fill-opacity="0" stroke-width="2" x="0" y="0" width="29.400000000000006" height="32.66739260872465" class="image-rect"></rect> <svg x="0" y="0" width="29.400000000000006" height="32.66739260872465" filter="colorsb6916006736" class="image-svg-svg primary"><svg xmlns="http://www.w3.org/2000/svg" viewBox="-0.008537526242434978 -0.0022095541935414076 50.408538818359375 56.01046371459961"><title>c9</title><g><g data-name="Layer 1"><path d="M20.88.78c-3.92 6-5.62 13.57-5.66 21.12a15.49 15.49 0 0 1 3-4.54 13.82 13.82 0 0 1 6.11-3.93A36.52 36.52 0 0 1 40.88 2.62 30.87 30.87 0 0 0 28.06 0a32.42 32.42 0 0 0-7.18.78z" fill="#02A693"></path><path d="M24.31 13.43a12.7 12.7 0 0 1 3.69-.55q6.16 0 11.2 5l11.2-8.4a29.65 29.65 0 0 0-9.53-6.91 36.52 36.52 0 0 0-16.56 10.86z" fill="#00BFAF"></path><path d="M15.22 21.9C15.26 14.35 17 6.74 20.88.78A29.41 29.41 0 0 0 8.4 7a25.46 25.46 0 0 0-2.82 2.74c.13 10.2 3.22 19.91 10.8 26.82A15.76 15.76 0 0 1 14 28a15.38 15.38 0 0 1 1.22-6.1z" fill="#02A693"></path><path d="M28 43.13a12.78 12.78 0 0 1-10.08-4.48 16.32 16.32 0 0 1-1.55-2.09C8.8 29.65 5.71 19.94 5.58 9.74A22.59 22.59 0 0 0 0 25.2v5.6A22.58 22.58 0 0 0 8.4 49 29.68 29.68 0 0 0 28 56a29.48 29.48 0 0 0 22.4-9.52l-11.2-8.4q-5.04 5.05-11.2 5.05z" fill="#222831"></path></g></g></svg></svg></g></g> <g transform="translate(27.997645378112793,3.6673927307128906)"><g data-gra="path-name" class="tp-name iconsvg-namesvg"><g transform="scale(1)"><g><path d="M5.83-15.25C2.88-14.11 1.17-11.26 1.1-8.16 1.01-5.15 2.21-2.55 4.54-0.95 5.83-0.03 7.49 0.37 8.96 0.37 10.77 0.37 13.04-0.64 13.93-2.42L13.93-0.95C13.93-0.28 14.33 0.15 15.03 0.15 15.71 0.15 16.17-0.28 16.17-0.95L16.17-14.57C16.17-15.22 15.71-15.68 15.03-15.68 14.33-15.68 13.93-15.22 13.93-14.57L13.93-13.41C12.82-15.22 10.83-15.77 9.08-15.8 7.92-15.83 6.81-15.68 5.8-15.22ZM8.74-1.75C7.61-1.84 6.5-2.21 5.58-2.91 3.93-4.3 3.28-6.14 3.34-8.13 3.37-8.93 3.53-9.76 3.8-10.4 4.66-12.55 6.87-13.71 9.05-13.68 11.81-13.56 13.93-12 13.93-8.96L13.93-6.53C13.78-3.47 11.57-1.75 8.74-1.75ZM47.76-0.89C47.76-0.21 48.16 0.18 48.86 0.18 49.54 0.18 50-0.21 50-0.89L50-9.11C50-13.32 46.44-15.68 42.91-15.68 40.18-15.68 37.51-14.36 36.41-11.63 35.48-14.36 32.85-15.68 30.18-15.68 27.81-15.68 25.64-14.7 24.41-12.49L24.41-14.6C24.41-15.19 24.01-15.68 23.34-15.68 22.72-15.68 22.23-15.19 22.23-14.6L22.23-0.89C22.23 0.49 24.47 0.52 24.47-0.89L24.47-7.79C24.47-11.23 27.2-13.53 30.21-13.53 31.16-13.53 32.05-13.32 32.85-12.82 34.26-11.93 34.96-10.25 34.96-8.5L34.96-0.89C34.96-0.21 35.42 0.18 36.1 0.18 36.77 0.18 37.23-0.21 37.23-0.89L37.23-7.64C37.23-11.17 39.78-13.56 43-13.56 45.58-13.56 47.7-11.66 47.76-9.02ZM70.79-7.3C70.88-10.86 69.19-13.9 65.85-15.28L65.88-15.25C64.93-15.65 63.88-15.83 62.93-15.83 61.09-15.83 58.94-15.03 57.9-13.13L57.9-14.57C57.9-15.25 57.56-15.65 56.86-15.65 56.15-15.65 55.72-15.25 55.72-14.57L55.72 4.48C55.72 5.89 57.96 5.89 57.96 4.48L57.96-2.12C58.88-0.49 60.88 0.34 62.93 0.34 67.53 0.34 70.66-2.95 70.79-7.3ZM63.12-13.71C64.28-13.62 65.39-13.25 66.28-12.55 67.93-11.17 68.58-9.33 68.55-7.33 68.52-6.53 68.33-5.71 68.09-5.06 67.2-2.95 65.02-1.78 62.84-1.78 60.05-1.9 57.96-3.8 57.96-6.5L57.96-8.93C57.96-11.93 60.32-13.71 63.12-13.71ZM77.92-14.7C77.92-15.37 77.46-15.77 76.79-15.77 76.08-15.77 75.68-15.37 75.68-14.7L75.68-6.57C75.68-2.15 79.09 0.31 82.65 0.31 85.04 0.31 87.4-0.67 88.51-2.91L88.51-0.98C88.51 0.49 90.72 0.46 90.72-0.95L90.72-14.7C90.72-15.37 90.26-15.77 89.55-15.77 88.84-15.77 88.44-15.37 88.44-14.7L88.44-7.58C88.44-4.23 85.65-1.78 82.68-1.78 80.19-1.78 77.92-3.74 77.92-6.57ZM95.24-3.47C95.86-0.4 99.78 0.25 102.33 0.25 104.88 0.25 109.3-0.71 109.3-4.57 109.3-8.41 105.71-8.71 102.33-9.02 99.88-9.2 97.61-9.17 97.61-11.14 97.61-13.04 100.28-13.81 102.05-13.81 103.44-13.81 106.01-13.68 106.69-11.9 107.09-10.74 109.2-11.32 108.77-12.7 107.7-15.46 104.42-15.86 102.05-15.86 99.11-15.86 95.37-14.45 95.37-11.17 95.37-7.39 98.93-7.12 102.24-6.81 104.72-6.63 107.06-6.53 107.06-4.57 107.06-2.45 103.83-1.78 102.33-1.78 100.09-1.78 97.7-2.49 97.39-3.87 97.11-5.4 94.88-4.76 95.24-3.47ZM130.73-4.42L130.73-9.54C130.73-10.22 130.45-10.68 129.56-10.68L123.06-10.68C121.77-10.68 121.62-8.65 123.06-8.65L128.58-8.65 128.58-4.57C127.23-2.76 124.87-1.78 122.6-1.81 118.64-1.9 115.14-5.52 115.08-9.85 115.08-13.87 118.03-16.84 121.4-17.64 123.7-18.22 126.56-17.52 128.27-15.52 129.22-14.42 130.79-15.89 129.87-16.97 128.18-18.93 125.33-19.85 122.66-19.85 122.11-19.85 121.52-19.82 121.06-19.76 116.37-18.87 112.87-14.6 112.87-9.94 112.75-4.14 117.29 0.25 122.57 0.28 125.54 0.31 128.58-1.01 130.39-3.41 130.67-3.68 130.73-4.08 130.73-4.42ZM136.24-0.8C136.24 0.52 138.48 0.55 138.48-0.8L138.48-14.63C138.48-15.95 136.24-15.92 136.24-14.6ZM138.51-19.3C138.51-20.71 136.21-20.71 136.21-19.3L136.21-17.92C136.21-16.51 138.51-16.54 138.51-17.92ZM153.04-13.16C154.85-12.36 155.65-10.89 155.65-8.96L155.65-6.53C155.65-3.93 153.5-1.93 150.74-1.81L150.77-1.81C148.59-1.78 146.38-2.95 145.52-5.09 145.25-5.74 145.09-6.57 145.06-7.36 145-9.36 145.64-11.2 147.33-12.58L147.3-12.58C148.99-13.87 151.2-13.99 153.04-13.16ZM157.89-14.6C157.89-15.28 157.43-15.71 156.75-15.71 156.05-15.71 155.65-15.28 155.65-14.6L155.65-13.44C154.63-15.13 152.49-15.83 150.61-15.83 149.69-15.83 148.68-15.68 147.73-15.31 144.39-13.93 142.73-10.89 142.82-7.33 142.88-4.23 144.63-1.44 147.49-0.28 148.53 0.15 149.63 0.34 150.8 0.31 152.64 0.28 154.63-0.46 155.71-2.39L155.71-0.74C155.71 2.42 153.1 3.84 150.31 3.84 148.59 3.84 147.49 3.47 145.95 2.3L145.95 2.3C144.91 1.29 143.22 2.7 144.45 3.9 146.1 5.46 147.98 6.01 150.31 6.01 154.51 6.01 157.89 3.71 157.89-0.74ZM162.45-3.47C163.06-0.4 166.99 0.25 169.53 0.25 172.08 0.25 176.5-0.71 176.5-4.57 176.5-8.41 172.91-8.71 169.53-9.02 167.08-9.2 164.81-9.17 164.81-11.14 164.81-13.04 167.48-13.81 169.26-13.81 170.64-13.81 173.21-13.68 173.89-11.9 174.29-10.74 176.4-11.32 175.98-12.7 174.9-15.46 171.62-15.86 169.26-15.86 166.31-15.86 162.57-14.45 162.57-11.17 162.57-7.39 166.13-7.12 169.44-6.81 171.93-6.63 174.26-6.53 174.26-4.57 174.26-2.45 171.04-1.78 169.53-1.78 167.29-1.78 164.9-2.49 164.59-3.87 164.32-5.4 162.08-4.76 162.45-3.47Z" transform="translate(-1.09528386592865, 20.357498168945312)"></path></g></g></g></g></g></svg>