<svg data-v-0dd9719b="" version="1.0" xmlns="http://www.w3.org/2000/svg" xmlns:xlink="http://www.w3.org/1999/xlink" viewBox="0 0 640.000000 60"
 height="50" width="266"><g data-v-0dd9719b="" fill="#333" class="icon-text-wrapper icon-svg-group iconsvg" transform="translate(0,-50)"><g class="iconsvg-imagesvg" transform="translate(0,40)"><g> <svg x="0" y="0" width="140" height="100" filtersec="colorsb3262280271" class="image-svg-svg primary"><svg xmlns="http://www.w3.org/2000/svg" viewBox="-0.0020000000949949026 0 145.70199584960938 100"><path fill="#01635A" d="M45.695 50.003l27.146-27.146 27.146 27.146L72.84 77.148z"></path><path fill="#01635A" opacity=".6" d="M-.002 50.001L22.85 27.148l50 50L49.997 100z"></path><path fill="#01635A" fill-rule="evenodd" opacity=".8" d="M95.7 0L72.85 22.85 45.7 50l27.15 27.15L95.7 100l50-50-50-50z"></path><path fill="#01635A" opacity=".8" d="M22.85 27.152L49.994.006 72.85 22.86 45.703 50.006z"></path></svg></svg></g></g> <g transform="translate(160,55)"><g data-gra="path-name" fill-rule="" class="tp-name iconsvg-namesvg"><g transform="scale(2.7)"><g><path d="M17.25-20.33L17.25-20.33Q18.04-19.94 18.18-19.08 18.32-18.23 17.74-17.52L17.74-17.52Q17.34-16.97 16.71-16.91 16.09-16.85 15.45-17.16L15.45-17.16Q14.72-17.49 13.91-17.68 13.1-17.86 12.21-17.86L12.21-17.86Q10.56-17.86 9.27-17.34 7.97-16.82 7.05-15.86 6.14-14.9 5.66-13.59 5.19-12.27 5.19-10.69L5.19-10.69Q5.19-8.82 5.72-7.45 6.26-6.08 7.2-5.16 8.15-4.24 9.43-3.8 10.72-3.36 12.21-3.36L12.21-3.36Q13.04-3.36 13.86-3.51 14.68-3.66 15.45-4.06L15.45-4.06Q16.09-4.37 16.71-4.27 17.34-4.18 17.77-3.63L17.77-3.63Q18.38-2.87 18.21-2.06 18.04-1.25 17.28-0.89L17.28-0.89Q16.49-0.49 15.65-0.23 14.81 0.03 13.95 0.17 13.1 0.31 12.21 0.31L12.21 0.31Q10.01 0.31 8.04-0.4 6.08-1.1 4.53-2.47 2.99-3.85 2.11-5.91 1.22-7.97 1.22-10.69L1.22-10.69Q1.22-13.04 2.03-15.02 2.84-17 4.32-18.45 5.8-19.91 7.82-20.71 9.83-21.52 12.21-21.52L12.21-21.52Q13.55-21.52 14.84-21.22 16.12-20.91 17.25-20.33ZM34.35-16.64L34.35-16.64Q35.14-16.64 35.66-16.12 36.18-15.6 36.18-14.78L36.18-14.78 36.18-1.86Q36.18-1.07 35.66-0.53 35.14 0 34.35 0L34.35 0Q33.55 0 33.03-0.53 32.51-1.07 32.51-1.86L32.51-1.86 32.51-3.36 33.19-3.08Q33.19-2.69 32.76-2.12 32.33-1.56 31.6-1.01 30.86-0.46 29.87-0.08 28.88 0.31 27.72 0.31L27.72 0.31Q25.61 0.31 23.9-0.78 22.19-1.86 21.2-3.77 20.21-5.68 20.21-8.15L20.21-8.15Q20.21-10.65 21.2-12.56 22.19-14.47 23.87-15.55 25.55-16.64 27.6-16.64L27.6-16.64Q28.91-16.64 30.01-16.24 31.11-15.84 31.92-15.23 32.73-14.62 33.17-14 33.61-13.37 33.61-12.94L33.61-12.94 32.51-12.55 32.51-14.78Q32.51-15.57 33.03-16.1 33.55-16.64 34.35-16.64ZM28.18-3.05L28.18-3.05Q29.52-3.05 30.53-3.72 31.54-4.4 32.1-5.56 32.67-6.72 32.67-8.15L32.67-8.15Q32.67-9.62 32.1-10.78 31.54-11.94 30.53-12.61 29.52-13.28 28.18-13.28L28.18-13.28Q26.87-13.28 25.86-12.61 24.85-11.94 24.29-10.78 23.72-9.62 23.72-8.15L23.72-8.15Q23.72-6.72 24.29-5.56 24.85-4.4 25.86-3.72 26.87-3.05 28.18-3.05ZM48.72-16.64L48.72-16.64Q51.17-16.64 52.33-15.46 53.49-14.29 53.85-12.43L53.85-12.43 53.33-12.7 53.58-13.19Q53.95-13.89 54.71-14.7 55.47-15.51 56.56-16.07 57.64-16.64 58.98-16.64L58.98-16.64Q61.18-16.64 62.33-15.69 63.47-14.75 63.9-13.17 64.32-11.6 64.32-9.68L64.32-9.68 64.32-1.86Q64.32-1.07 63.81-0.53 63.29 0 62.49 0L62.49 0Q61.7 0 61.18-0.53 60.66-1.07 60.66-1.86L60.66-1.86 60.66-9.68Q60.66-10.69 60.42-11.49 60.17-12.3 59.53-12.79 58.89-13.28 57.7-13.28L57.7-13.28Q56.54-13.28 55.72-12.79 54.89-12.3 54.48-11.49 54.07-10.69 54.07-9.68L54.07-9.68 54.07-1.86Q54.07-1.07 53.55-0.53 53.03 0 52.24 0L52.24 0Q51.44 0 50.92-0.53 50.4-1.07 50.4-1.86L50.4-1.86 50.4-9.68Q50.4-10.69 50.16-11.49 49.92-12.3 49.27-12.79 48.63-13.28 47.44-13.28L47.44-13.28Q46.28-13.28 45.46-12.79 44.63-12.3 44.22-11.49 43.81-10.69 43.81-9.68L43.81-9.68 43.81-1.86Q43.81-1.07 43.29-0.53 42.77 0 41.98 0L41.98 0Q41.18 0 40.66-0.53 40.15-1.07 40.15-1.86L40.15-1.86 40.15-14.47Q40.15-15.26 40.66-15.8 41.18-16.33 41.98-16.33L41.98-16.33Q42.77-16.33 43.29-15.8 43.81-15.26 43.81-14.47L43.81-14.47 43.81-13.16 43.35-13.25Q43.63-13.77 44.11-14.36 44.6-14.96 45.31-15.48 46.01-16 46.86-16.32 47.72-16.64 48.72-16.64ZM76.75-16.64L76.75-16.64Q78.89-16.64 80.58-15.55 82.28-14.47 83.27-12.58 84.26-10.69 84.26-8.18L84.26-8.18Q84.26-5.68 83.27-3.77 82.28-1.86 80.61-0.78 78.95 0.31 76.87 0.31L76.87 0.31Q75.65 0.31 74.58-0.09 73.51-0.49 72.71-1.1 71.9-1.71 71.45-2.34 71.01-2.96 71.01-3.39L71.01-3.39 71.96-3.79 71.96 4.24Q71.96 5.04 71.44 5.57 70.92 6.11 70.13 6.11L70.13 6.11Q69.33 6.11 68.81 5.59 68.29 5.07 68.29 4.24L68.29 4.24 68.29-14.47Q68.29-15.26 68.81-15.8 69.33-16.33 70.13-16.33L70.13-16.33Q70.92-16.33 71.44-15.8 71.96-15.26 71.96-14.47L71.96-14.47 71.96-12.97 71.44-13.25Q71.44-13.65 71.87-14.21 72.29-14.78 73.03-15.34 73.76-15.91 74.72-16.27 75.68-16.64 76.75-16.64ZM76.29-13.28L76.29-13.28Q74.95-13.28 73.94-12.61 72.93-11.94 72.37-10.79 71.8-9.65 71.8-8.18L71.8-8.18Q71.8-6.75 72.37-5.57 72.93-4.4 73.94-3.72 74.95-3.05 76.29-3.05L76.29-3.05Q77.64-3.05 78.63-3.72 79.62-4.4 80.18-5.57 80.75-6.75 80.75-8.18L80.75-8.18Q80.75-9.65 80.18-10.79 79.62-11.94 78.63-12.61 77.64-13.28 76.29-13.28ZM99.43-16.33L99.43-16.33Q100.23-16.33 100.75-15.8 101.27-15.26 101.27-14.47L101.27-14.47 101.27-6.72Q101.27-3.48 99.46-1.59 97.66 0.31 94.27 0.31L94.27 0.31Q90.89 0.31 89.1-1.59 87.31-3.48 87.31-6.72L87.31-6.72 87.31-14.47Q87.31-15.26 87.83-15.8 88.35-16.33 89.15-16.33L89.15-16.33Q89.94-16.33 90.46-15.8 90.98-15.26 90.98-14.47L90.98-14.47 90.98-6.72Q90.98-4.85 91.8-3.95 92.63-3.05 94.27-3.05L94.27-3.05Q95.95-3.05 96.78-3.95 97.6-4.85 97.6-6.72L97.6-6.72 97.6-14.47Q97.6-15.26 98.12-15.8 98.64-16.33 99.43-16.33ZM104.29-2.53L104.29-2.53Q103.98-2.96 104.01-3.63 104.04-4.3 104.81-4.79L104.81-4.79Q105.3-5.1 105.84-5.05 106.39-5.01 106.91-4.49L106.91-4.49Q107.8-3.6 108.78-3.11 109.75-2.63 111.22-2.63L111.22-2.63Q111.68-2.66 112.23-2.76 112.77-2.87 113.19-3.25 113.6-3.63 113.6-4.43L113.6-4.43Q113.6-5.1 113.14-5.5 112.68-5.89 111.94-6.17 111.19-6.44 110.27-6.69L110.27-6.69Q109.32-6.96 108.33-7.3 107.34-7.63 106.52-8.17 105.69-8.7 105.17-9.59 104.65-10.47 104.65-11.81L104.65-11.81Q104.65-13.34 105.51-14.41 106.36-15.48 107.72-16.06 109.08-16.64 110.58-16.64L110.58-16.64Q111.52-16.64 112.56-16.41 113.6-16.18 114.55-15.68 115.49-15.17 116.13-14.35L116.13-14.35Q116.47-13.89 116.53-13.25 116.59-12.61 115.95-12.09L115.95-12.09Q115.49-11.72 114.88-11.77 114.27-11.81 113.87-12.18L113.87-12.18Q113.35-12.85 112.48-13.25 111.61-13.65 110.49-13.65L110.49-13.65Q110.03-13.65 109.49-13.54 108.96-13.43 108.56-13.08 108.16-12.73 108.16-11.97L108.16-11.97Q108.16-11.27 108.62-10.85 109.08-10.44 109.86-10.18 110.64-9.92 111.52-9.68L111.52-9.68Q112.44-9.43 113.39-9.1 114.33-8.76 115.13-8.21 115.92-7.66 116.41-6.79 116.9-5.92 116.9-4.58L116.9-4.58Q116.9-3.02 115.98-1.92 115.06-0.82 113.69-0.26 112.32 0.31 110.88 0.31L110.88 0.31Q109.08 0.31 107.28-0.32 105.48-0.95 104.29-2.53ZM130.18 0.31L130.18 0.31Q127.86 0.31 125.84-0.55 123.83-1.4 122.3-2.92 120.77-4.43 119.9-6.41 119.03-8.4 119.03-10.69L119.03-10.69Q119.03-12.97 119.9-14.96 120.77-16.94 122.3-18.45 123.83-19.97 125.84-20.82 127.86-21.68 130.18-21.68L130.18-21.68Q131.61-21.68 132.95-21.37 134.3-21.07 135.43-20.45L135.43-20.45Q135.89-20.21 136.11-19.8 136.34-19.39 136.34-18.96L136.34-18.96Q136.34-18.23 135.85-17.65 135.37-17.07 134.6-17.07L134.6-17.07Q134.36-17.07 134.1-17.13 133.84-17.19 133.6-17.31L133.6-17.31Q132.83-17.65 131.98-17.83 131.12-18.01 130.18-18.01L130.18-18.01Q128.19-18.01 126.56-17.02 124.93-16.03 123.96-14.36 123-12.7 123-10.69L123-10.69Q123-8.7 123.96-7.02 124.93-5.34 126.56-4.35 128.19-3.36 130.18-3.36L130.18-3.36Q131.09-3.36 132.19-3.54 133.29-3.72 133.99-4.03L133.99-4.03 133.72-3.11 133.72-8.33 134.24-7.88 130.85-7.88Q130.05-7.88 129.52-8.4 128.99-8.91 128.99-9.71L128.99-9.71Q128.99-10.5 129.52-11.02 130.05-11.54 130.85-11.54L130.85-11.54 135.85-11.54Q136.65-11.54 137.17-11.01 137.69-10.47 137.69-9.68L137.69-9.68 137.69-3.21Q137.69-2.59 137.4-2.2 137.11-1.8 136.74-1.56L136.74-1.56Q135.34-0.7 133.67-0.2 132.01 0.31 130.18 0.31ZM144.49-14.47L144.49-1.86Q144.49-1.07 143.98-0.53 143.46 0 142.66 0L142.66 0Q141.87 0 141.35-0.53 140.83-1.07 140.83-1.86L140.83-1.86 140.83-14.47Q140.83-15.26 141.35-15.8 141.87-16.33 142.66-16.33L142.66-16.33Q143.46-16.33 143.98-15.8 144.49-15.26 144.49-14.47L144.49-14.47ZM142.63-18.32L142.63-18.32Q141.59-18.32 141.17-18.65 140.74-18.99 140.74-19.84L140.74-19.84 140.74-20.42Q140.74-21.31 141.21-21.63 141.69-21.95 142.66-21.95L142.66-21.95Q143.73-21.95 144.16-21.61 144.59-21.28 144.59-20.42L144.59-20.42 144.59-19.84Q144.59-18.96 144.13-18.64 143.67-18.32 142.63-18.32ZM154.87-16.64L154.87-16.64Q156.16-16.64 157.23-16.24 158.29-15.84 159.07-15.23 159.85-14.62 160.29-14 160.74-13.37 160.74-12.94L160.74-12.94 159.94-12.55 159.94-14.78Q159.94-15.57 160.46-16.1 160.98-16.64 161.77-16.64L161.77-16.64Q162.57-16.64 163.09-16.12 163.61-15.6 163.61-14.78L163.61-14.78 163.61-1.19Q163.61 1.47 162.46 3.07 161.32 4.67 159.45 5.39 157.59 6.11 155.45 6.11L155.45 6.11Q154.84 6.11 153.87 5.95 152.89 5.8 152 5.59 151.12 5.37 150.66 5.19L150.66 5.19Q149.75 4.79 149.39 4.2 149.04 3.6 149.26 2.93L149.26 2.93Q149.53 2.05 150.14 1.72 150.75 1.4 151.42 1.65L151.42 1.65Q151.73 1.74 152.43 2.01 153.13 2.29 153.97 2.52 154.81 2.75 155.45 2.75L155.45 2.75Q157.74 2.75 158.84 1.83 159.94 0.92 159.94-0.7L159.94-0.7 159.94-3.36 160.31-3.08Q160.31-2.69 159.9-2.12 159.48-1.56 158.77-1.01 158.05-0.46 157.07-0.08 156.1 0.31 155 0.31L155 0.31Q152.83 0.31 151.09-0.78 149.35-1.86 148.34-3.77 147.33-5.68 147.33-8.15L147.33-8.15Q147.33-10.65 148.34-12.56 149.35-14.47 151.06-15.55 152.77-16.64 154.87-16.64ZM155.45-13.28L155.45-13.28Q154.08-13.28 153.04-12.61 152-11.94 151.42-10.78 150.84-9.62 150.84-8.15L150.84-8.15Q150.84-6.72 151.42-5.56 152-4.4 153.04-3.72 154.08-3.05 155.45-3.05L155.45-3.05Q156.86-3.05 157.9-3.72 158.93-4.4 159.51-5.56 160.09-6.72 160.09-8.15L160.09-8.15Q160.09-9.62 159.51-10.78 158.93-11.94 157.9-12.61 156.86-13.28 155.45-13.28ZM166.32-2.53L166.32-2.53Q166.02-2.96 166.05-3.63 166.08-4.3 166.84-4.79L166.84-4.79Q167.33-5.1 167.88-5.05 168.43-5.01 168.95-4.49L168.95-4.49Q169.83-3.6 170.81-3.11 171.79-2.63 173.25-2.63L173.25-2.63Q173.71-2.66 174.26-2.76 174.81-2.87 175.22-3.25 175.63-3.63 175.63-4.43L175.63-4.43Q175.63-5.1 175.18-5.5 174.72-5.89 173.97-6.17 173.22-6.44 172.31-6.69L172.31-6.69Q171.36-6.96 170.37-7.3 169.38-7.63 168.55-8.17 167.73-8.7 167.21-9.59 166.69-10.47 166.69-11.81L166.69-11.81Q166.69-13.34 167.54-14.41 168.4-15.48 169.76-16.06 171.12-16.64 172.61-16.64L172.61-16.64Q173.56-16.64 174.6-16.41 175.63-16.18 176.58-15.68 177.53-15.17 178.17-14.35L178.17-14.35Q178.5-13.89 178.57-13.25 178.63-12.61 177.99-12.09L177.99-12.09Q177.53-11.72 176.92-11.77 176.31-11.81 175.91-12.18L175.91-12.18Q175.39-12.85 174.52-13.25 173.65-13.65 172.52-13.65L172.52-13.65Q172.06-13.65 171.53-13.54 170.99-13.43 170.6-13.08 170.2-12.73 170.2-11.97L170.2-11.97Q170.2-11.27 170.66-10.85 171.12-10.44 171.89-10.18 172.67-9.92 173.56-9.68L173.56-9.68Q174.47-9.43 175.42-9.1 176.37-8.76 177.16-8.21 177.95-7.66 178.44-6.79 178.93-5.92 178.93-4.58L178.93-4.58Q178.93-3.02 178.02-1.92 177.1-0.82 175.73-0.26 174.35 0.31 172.92 0.31L172.92 0.31Q171.12 0.31 169.31-0.32 167.51-0.95 166.32-2.53Z" transform="translate(-1.2200000286102295, 21.950000762939453)"></path></g></g></g></g></g></svg>